<?xml version="1.0" encoding="UTF-8" standalone="no"?>
<svg
   xmlns:dc="http://purl.org/dc/elements/1.1/"
   xmlns:cc="http://creativecommons.org/ns#"
   xmlns:rdf="http://www.w3.org/1999/02/22-rdf-syntax-ns#"
   xmlns:svg="http://www.w3.org/2000/svg"
   xmlns="http://www.w3.org/2000/svg"
   xmlns:sodipodi="http://sodipodi.sourceforge.net/DTD/sodipodi-0.dtd"
   xmlns:inkscape="http://www.inkscape.org/namespaces/inkscape"
   inkscape:version="1.0 (4035a4f, 2020-05-01)"
   sodipodi:docname="logo2.svg"
   version="1.1"
   id="svg2"
   viewBox="0 0 141.73226 60.236211"
   height="1.7cm"
   width="4cm">
  <sodipodi:namedview
     inkscape:current-layer="layer1"
     inkscape:window-maximized="1"
     inkscape:window-y="23"
     inkscape:window-x="1280"
     inkscape:cy="24.202906"
     inkscape:cx="82.791317"
     inkscape:zoom="9.1039469"
     showgrid="false"
     id="namedview114"
     inkscape:window-height="961"
     inkscape:window-width="1920"
     inkscape:pageshadow="2"
     inkscape:pageopacity="0"
     guidetolerance="10"
     gridtolerance="10"
     objecttolerance="10"
     borderopacity="1"
     bordercolor="#666666"
     pagecolor="#ffffff" />
  <metadata
     id="metadata13">
    <rdf:RDF>
      <cc:Work
         rdf:about="">
        <dc:format>image/svg+xml</dc:format>
        <dc:type
           rdf:resource="http://purl.org/dc/dcmitype/StillImage" />
        <dc:title></dc:title>
      </cc:Work>
    </rdf:RDF>
  </metadata>
  <defs
     id="defs4">
    <style
       type="text/css"
       id="style4">@import url('http://fonts.googleapis.com/css?family=Montserrat');</style>
  </defs>
  <g
     transform="translate(0,-992.12672)"
     id="layer1"
     style="fill:#000000">
    <g
       transform="translate(-2.1625232,0.92679567)"
       style="font-style:normal;font-weight:normal;font-size:40px;line-height:125%;font-family:sans-serif;letter-spacing:0px;word-spacing:0px;fill:#ffffff;fill-opacity:1;stroke:none;stroke-width:1px;stroke-linecap:butt;stroke-linejoin:miter;stroke-opacity:1"
       id="text3384">
      <path
         d="m 13.608219,1025.4248 v -12.5325 h 2.52 v 12.6225 q 0,1.89 -1.1475,2.9925 -1.125,1.125 -2.745,1.125 -1.5975,0 -2.9250001,-1.1925 l 1.1700001,-1.89 q 0.765,0.7425 1.53,0.7425 0.7875,0 1.1925,-0.495 0.405,-0.495 0.405,-1.3725 z m 0.1125,-14.9175 q -0.4725,-0.4725 -0.4725,-1.125 0,-0.6525 0.4725,-1.125 0.4725,-0.4725 1.125,-0.4725 0.6525,0 1.125,0.4725 0.4725,0.4725 0.4725,1.125 0,0.6525 -0.4725,1.125 -0.4725,0.4725 -1.125,0.4725 -0.6525,0 -1.125,-0.4725 z"
         style="font-style:normal;font-variant:normal;font-weight:normal;font-stretch:normal;font-size:22.50000000000000000px;font-family:Montserrat;-inkscape-font-specification:Montserrat;fill:#ffffff"
         id="path4224" />
      <path
         d="m 22.550563,1021.7123 q 1.08,1.08 2.7225,1.08 1.6425,0 2.7,-1.08 1.08,-1.1025 1.08,-2.835 0,-1.7325 -1.08,-2.8125 -1.0575,-1.1025 -2.7,-1.1025 -1.6425,0 -2.7225,1.1025 -1.0575,1.08 -1.0575,2.8125 0,1.7325 1.0575,2.835 z m 7.2225,1.5525 q -1.8,1.7775 -4.5,1.7775 -2.7,0 -4.5,-1.7775 -1.8,-1.8 -1.8,-4.3875 0,-2.5875 1.8,-4.365 1.8,-1.8 4.5,-1.8 2.7,0 4.5,1.8 1.8,1.7775 1.8,4.365 0,2.5875 -1.8,4.3875 z"
         style="font-style:normal;font-variant:normal;font-weight:normal;font-stretch:normal;font-size:22.50000000000000000px;font-family:Montserrat;-inkscape-font-specification:Montserrat;fill:#ffffff"
         id="path4226" />
      <path
         d="m 44.179742,1024.8623 h -2.295 v -1.5975 q -1.485,1.7775 -3.9825,1.7775 -1.8675,0 -3.105,-1.0575 -1.215,-1.0575 -1.215,-2.8125 0,-1.7775 1.305,-2.655 1.305,-0.8775 3.5325,-0.8775 h 3.2625 v -0.45 q 0,-2.385 -2.655,-2.385 -1.665,0 -3.465,1.215 l -1.125,-1.575 q 2.1825,-1.7325 4.95,-1.7325 2.115,0 3.4425,1.08 1.35,1.0575 1.35,3.3525 z m -2.52,-4.455 v -1.0125 h -2.835 q -2.7225,0 -2.7225,1.71 0,0.8775 0.675,1.35 0.675,0.45 1.8675,0.45 1.215,0 2.115,-0.675 0.9,-0.675 0.9,-1.8225 z m -0.7875,-8.9775 q -0.585,0 -1.6425,-0.5175 -1.035,-0.54 -1.3275,-0.54 -0.7425,0 -0.765,0.99 h -1.665 q 0,-1.305 0.5175,-2.115 0.54,-0.81 1.485,-0.81 0.6075,0 1.6875,0.54 1.08,0.5175 1.4175,0.5175 0.675,0 0.675,-0.99 h 1.6875 q -0.0675,2.925 -2.07,2.925 z"
         style="font-style:normal;font-variant:normal;font-weight:normal;font-stretch:normal;font-size:22.50000000000000000px;font-family:Montserrat;-inkscape-font-specification:Montserrat;fill:#ffffff"
         id="path4228" />
      <path
         d="m 50.499781,1021.7123 q 1.08,1.08 2.7225,1.08 1.6425,0 2.7,-1.08 1.08,-1.1025 1.08,-2.835 0,-1.7325 -1.08,-2.8125 -1.0575,-1.1025 -2.7,-1.1025 -1.6425,0 -2.7225,1.1025 -1.0575,1.08 -1.0575,2.8125 0,1.7325 1.0575,2.835 z m 7.2225,1.5525 q -1.8,1.7775 -4.5,1.7775 -2.7,0 -4.5,-1.7775 -1.8,-1.8 -1.8,-4.3875 0,-2.5875 1.8,-4.365 1.8,-1.8 4.5,-1.8 2.7,0 4.5,1.8 1.8,1.7775 1.8,4.365 0,2.5875 -1.8,4.3875 z"
         style="font-style:normal;font-variant:normal;font-weight:normal;font-stretch:normal;font-size:22.50000000000000000px;font-family:Montserrat;-inkscape-font-specification:Montserrat;fill:#ffffff"
         id="path4230" />
      <path
         d="m 71.103805,1018.3823 v 6.48 h -2.52 v -11.97 h 2.52 v 2.1825 q 0.6075,-1.1025 1.665,-1.7325 1.08,-0.63 2.3175,-0.63 2.025,0 3.2625,1.2375 1.26,1.2375 1.26,3.5775 v 7.335 h -2.52 v -6.57 q 0,-3.3075 -2.745,-3.3075 -1.305,0 -2.2725,0.8775 -0.9675,0.855 -0.9675,2.52 z"
         style="font-style:normal;font-variant:normal;font-weight:normal;font-stretch:normal;font-size:22.50000000000000000px;font-family:Montserrat;-inkscape-font-specification:Montserrat;fill:#ffffff"
         id="path4232" />
      <path
         d="m 91.455758,1019.3723 v -6.48 h 2.52 v 11.97 h -2.52 v -2.1825 q -0.6075,1.1025 -1.6875,1.7325 -1.0575,0.63 -2.295,0.63 -2.025,0 -3.285,-1.2375 -1.2375,-1.2375 -1.2375,-3.5775 v -7.335 h 2.52 v 6.57 q 0,3.3075 2.745,3.3075 1.305,0 2.2725,-0.855 0.9675,-0.8775 0.9675,-2.5425 z"
         style="font-style:normal;font-variant:normal;font-weight:normal;font-stretch:normal;font-size:22.50000000000000000px;font-family:Montserrat;-inkscape-font-specification:Montserrat;fill:#ffffff"
         id="path4234" />
      <path
         d="m 100.10771,1018.3823 v 6.48 h -2.519999 v -11.97 h 2.519999 v 2.1825 q 0.6075,-1.1025 1.665,-1.7325 1.08,-0.63 2.3175,-0.63 2.025,0 3.2625,1.2375 1.26,1.2375 1.26,3.5775 v 7.335 h -2.52 v -6.57 q 0,-3.3075 -2.745,-3.3075 -1.305,0 -2.2725,0.8775 -0.9675,0.855 -0.9675,2.52 z"
         style="font-style:normal;font-variant:normal;font-weight:normal;font-stretch:normal;font-size:22.50000000000000000px;font-family:Montserrat;-inkscape-font-specification:Montserrat;fill:#ffffff"
         id="path4236" />
      <path
         d="m 123.22716,1019.9798 h -9.3825 q 0.09,1.305 1.1925,2.115 1.1025,0.7875 2.52,0.7875 2.25,0 3.42,-1.4175 l 1.44,1.575 q -1.935,2.0025 -5.04,2.0025 -2.52,0 -4.2975,-1.665 -1.755,-1.6875 -1.755,-4.5 0,-2.835 1.8,-4.5 1.8,-1.665 4.23,-1.665 2.4525,0 4.1625,1.485 1.71,1.4625 1.71,4.05 z m -9.3825,-1.98 h 6.8625 q 0,-1.5075 -0.945,-2.3175 -0.945,-0.81 -2.34,-0.81 -1.3725,0 -2.475,0.855 -1.1025,0.8325 -1.1025,2.2725 z"
         style="font-style:normal;font-variant:normal;font-weight:normal;font-stretch:normal;font-size:22.50000000000000000px;font-family:Montserrat;-inkscape-font-specification:Montserrat;fill:#ffffff"
         id="path4238" />
      <path
         d="m 134.54783,1021.2848 q 0,1.71 -1.2375,2.745 -1.2375,1.0125 -3.1725,1.0125 -1.305,0 -2.7225,-0.4725 -1.395,-0.4725 -2.475,-1.3275 l 1.215,-1.9575 q 2.0925,1.575 4.05,1.575 0.855,0 1.35,-0.3825 0.495,-0.405 0.495,-1.0125 0,-0.9 -2.385,-1.62 -0.18,-0.067 -0.27,-0.09 -3.735,-1.0125 -3.735,-3.375 0,-1.665 1.2825,-2.655 1.305,-1.0125 3.375,-1.0125 2.07,0 3.915,1.215 l -0.945,1.8675 q -1.4625,-0.9675 -3.1725,-0.9675 -0.9,0 -1.4625,0.3375 -0.5625,0.315 -0.5625,0.9675 0,0.585 0.585,0.855 0.405,0.2025 1.125,0.3825 0.7425,0.18 1.305,0.36 0.5625,0.18 1.08,0.405 0.54,0.225 1.1475,0.63 1.215,0.81 1.215,2.52 z"
         style="font-style:normal;font-variant:normal;font-weight:normal;font-stretch:normal;font-size:22.50000000000000000px;font-family:Montserrat;-inkscape-font-specification:Montserrat;fill:#ffffff"
         id="path4240" />
    </g>
    <text
       transform="scale(1.0380627,0.96333294)"
       id="text124"
       y="1083.5967"
       x="24.079039"
       style="font-style:normal;font-variant:normal;font-weight:200;font-stretch:normal;font-size:10.38059999999999938px;line-height:1.25;font-family:'Helvetica Neue';-inkscape-font-specification:'Helvetica Neue Ultra-Light';fill:#ffffff;fill-opacity:1;stroke:none;stroke-width:0.973184;"
       xml:space="preserve"><tspan
         style="font-style:normal;font-variant:normal;font-weight:200;font-stretch:normal;font-size:10.38059999999999938px;font-family:'Helvetica Neue';-inkscape-font-specification:'Helvetica Neue Ultra-Light';fill:#ffffff;stroke-width:0.973184;"
         y="1083.5967"
         x="24.079039"
         id="tspan122"
         sodipodi:role="line">software engineering</tspan></text>
  </g>
</svg>
