<?xml version="1.0" encoding="UTF-8" standalone="no"?>
<svg
   xmlns:dc="http://purl.org/dc/elements/1.1/"
   xmlns:cc="http://creativecommons.org/ns#"
   xmlns:rdf="http://www.w3.org/1999/02/22-rdf-syntax-ns#"
   xmlns:svg="http://www.w3.org/2000/svg"
   xmlns="http://www.w3.org/2000/svg"
   width="4cm"
   height="1.7cm"
   viewBox="0 0 141.73226 60.236211"
   id="svg2"
   version="1.1">
  <metadata
     id="metadata13">
    <rdf:RDF>
      <cc:Work
         rdf:about="">
        <dc:format>image/svg+xml</dc:format>
        <dc:type
           rdf:resource="http://purl.org/dc/dcmitype/StillImage" />
        <dc:title></dc:title>
      </cc:Work>
    </rdf:RDF>
  </metadata>
  <defs
     id="defs4">
    <style
       id="style4"
       type="text/css">@import url('http://fonts.googleapis.com/css?family=Montserrat');</style>
  </defs>
  <g
     style="fill:#800000"
     id="layer1"
     transform="translate(0,-992.12672)">
    <g
       id="text3384"
       style="font-style:normal;font-weight:normal;font-size:40px;line-height:125%;font-family:sans-serif;letter-spacing:0px;word-spacing:0px;fill:#800000;fill-opacity:1;stroke:none;stroke-width:1px;stroke-linecap:butt;stroke-linejoin:miter;stroke-opacity:1">
      <path
         id="path4224"
         style="font-style:normal;font-variant:normal;font-weight:normal;font-stretch:normal;font-size:22.5px;font-family:Montserrat;-inkscape-font-specification:Montserrat;fill:#ffffff"
         d="m 13.608219,1025.4248 0,-12.5325 2.52,0 0,12.6225 q 0,1.89 -1.1475,2.9925 -1.125,1.125 -2.745,1.125 -1.5975,0 -2.9250001,-1.1925 l 1.1700001,-1.89 q 0.765,0.7425 1.53,0.7425 0.7875,0 1.1925,-0.495 0.405,-0.495 0.405,-1.3725 z m 0.1125,-14.9175 q -0.4725,-0.4725 -0.4725,-1.125 0,-0.6525 0.4725,-1.125 0.4725,-0.4725 1.125,-0.4725 0.6525,0 1.125,0.4725 0.4725,0.4725 0.4725,1.125 0,0.6525 -0.4725,1.125 -0.4725,0.4725 -1.125,0.4725 -0.6525,0 -1.125,-0.4725 z" />
      <path
         id="path4226"
         style="font-style:normal;font-variant:normal;font-weight:normal;font-stretch:normal;font-size:22.5px;font-family:Montserrat;-inkscape-font-specification:Montserrat;fill:#ffffff"
         d="m 22.550563,1021.7123 q 1.08,1.08 2.7225,1.08 1.6425,0 2.7,-1.08 1.08,-1.1025 1.08,-2.835 0,-1.7325 -1.08,-2.8125 -1.0575,-1.1025 -2.7,-1.1025 -1.6425,0 -2.7225,1.1025 -1.0575,1.08 -1.0575,2.8125 0,1.7325 1.0575,2.835 z m 7.2225,1.5525 q -1.8,1.7775 -4.5,1.7775 -2.7,0 -4.5,-1.7775 -1.8,-1.8 -1.8,-4.3875 0,-2.5875 1.8,-4.365 1.8,-1.8 4.5,-1.8 2.7,0 4.5,1.8 1.8,1.7775 1.8,4.365 0,2.5875 -1.8,4.3875 z" />
      <path
         id="path4228"
         style="font-style:normal;font-variant:normal;font-weight:normal;font-stretch:normal;font-size:22.5px;font-family:Montserrat;-inkscape-font-specification:Montserrat;fill:#ffffff"
         d="m 44.179742,1024.8623 -2.295,0 0,-1.5975 q -1.485,1.7775 -3.9825,1.7775 -1.8675,0 -3.105,-1.0575 -1.215,-1.0575 -1.215,-2.8125 0,-1.7775 1.305,-2.655 1.305,-0.8775 3.5325,-0.8775 l 3.2625,0 0,-0.45 q 0,-2.385 -2.655,-2.385 -1.665,0 -3.465,1.215 l -1.125,-1.575 q 2.1825,-1.7325 4.95,-1.7325 2.115,0 3.4425,1.08 1.35,1.0575 1.35,3.3525 l 0,7.7175 z m -2.52,-4.455 0,-1.0125 -2.835,0 q -2.7225,0 -2.7225,1.71 0,0.8775 0.675,1.35 0.675,0.45 1.8675,0.45 1.215,0 2.115,-0.675 0.9,-0.675 0.9,-1.8225 z m -0.7875,-8.9775 q -0.585,0 -1.6425,-0.5175 -1.035,-0.54 -1.3275,-0.54 -0.7425,0 -0.765,0.99 l -1.665,0 q 0,-1.305 0.5175,-2.115 0.54,-0.81 1.485,-0.81 0.6075,0 1.6875,0.54 1.08,0.5175 1.4175,0.5175 0.675,0 0.675,-0.99 l 1.6875,0 q -0.0675,2.925 -2.07,2.925 z" />
      <path
         id="path4230"
         style="font-style:normal;font-variant:normal;font-weight:normal;font-stretch:normal;font-size:22.5px;font-family:Montserrat;-inkscape-font-specification:Montserrat;fill:#ffffff"
         d="m 50.499781,1021.7123 q 1.08,1.08 2.7225,1.08 1.6425,0 2.7,-1.08 1.08,-1.1025 1.08,-2.835 0,-1.7325 -1.08,-2.8125 -1.0575,-1.1025 -2.7,-1.1025 -1.6425,0 -2.7225,1.1025 -1.0575,1.08 -1.0575,2.8125 0,1.7325 1.0575,2.835 z m 7.2225,1.5525 q -1.8,1.7775 -4.5,1.7775 -2.7,0 -4.5,-1.7775 -1.8,-1.8 -1.8,-4.3875 0,-2.5875 1.8,-4.365 1.8,-1.8 4.5,-1.8 2.7,0 4.5,1.8 1.8,1.7775 1.8,4.365 0,2.5875 -1.8,4.3875 z" />
      <path
         id="path4232"
         style="font-style:normal;font-variant:normal;font-weight:normal;font-stretch:normal;font-size:22.5px;font-family:Montserrat;-inkscape-font-specification:Montserrat;fill:#ffffff"
         d="m 71.103805,1018.3823 0,6.48 -2.52,0 0,-11.97 2.52,0 0,2.1825 q 0.6075,-1.1025 1.665,-1.7325 1.08,-0.63 2.3175,-0.63 2.025,0 3.2625,1.2375 1.26,1.2375 1.26,3.5775 l 0,7.335 -2.52,0 0,-6.57 q 0,-3.3075 -2.745,-3.3075 -1.305,0 -2.2725,0.8775 -0.9675,0.855 -0.9675,2.52 z" />
      <path
         id="path4234"
         style="font-style:normal;font-variant:normal;font-weight:normal;font-stretch:normal;font-size:22.5px;font-family:Montserrat;-inkscape-font-specification:Montserrat;fill:#ffffff"
         d="m 91.455758,1019.3723 0,-6.48 2.52,0 0,11.97 -2.52,0 0,-2.1825 q -0.6075,1.1025 -1.6875,1.7325 -1.0575,0.63 -2.295,0.63 -2.025,0 -3.285,-1.2375 -1.2375,-1.2375 -1.2375,-3.5775 l 0,-7.335 2.52,0 0,6.57 q 0,3.3075 2.745,3.3075 1.305,0 2.2725,-0.855 0.9675,-0.8775 0.9675,-2.5425 z" />
      <path
         id="path4236"
         style="font-style:normal;font-variant:normal;font-weight:normal;font-stretch:normal;font-size:22.5px;font-family:Montserrat;-inkscape-font-specification:Montserrat;fill:#ffffff"
         d="m 100.10771,1018.3823 0,6.48 -2.519999,0 0,-11.97 2.519999,0 0,2.1825 q 0.6075,-1.1025 1.665,-1.7325 1.08,-0.63 2.3175,-0.63 2.025,0 3.2625,1.2375 1.26,1.2375 1.26,3.5775 l 0,7.335 -2.52,0 0,-6.57 q 0,-3.3075 -2.745,-3.3075 -1.305,0 -2.2725,0.8775 -0.9675,0.855 -0.9675,2.52 z" />
      <path
         id="path4238"
         style="font-style:normal;font-variant:normal;font-weight:normal;font-stretch:normal;font-size:22.5px;font-family:Montserrat;-inkscape-font-specification:Montserrat;fill:#ffffff"
         d="m 123.22716,1019.9798 -9.3825,0 q 0.09,1.305 1.1925,2.115 1.1025,0.7875 2.52,0.7875 2.25,0 3.42,-1.4175 l 1.44,1.575 q -1.935,2.0025 -5.04,2.0025 -2.52,0 -4.2975,-1.665 -1.755,-1.6875 -1.755,-4.5 0,-2.835 1.8,-4.5 1.8,-1.665 4.23,-1.665 2.4525,0 4.1625,1.485 1.71,1.4625 1.71,4.05 l 0,1.7325 z m -9.3825,-1.98 6.8625,0 q 0,-1.5075 -0.945,-2.3175 -0.945,-0.81 -2.34,-0.81 -1.3725,0 -2.475,0.855 -1.1025,0.8325 -1.1025,2.2725 z" />
      <path
         id="path4240"
         style="font-style:normal;font-variant:normal;font-weight:normal;font-stretch:normal;font-size:22.5px;font-family:Montserrat;-inkscape-font-specification:Montserrat;fill:#ffffff"
         d="m 134.54783,1021.2848 q 0,1.71 -1.2375,2.745 -1.2375,1.0125 -3.1725,1.0125 -1.305,0 -2.7225,-0.4725 -1.395,-0.4725 -2.475,-1.3275 l 1.215,-1.9575 q 2.0925,1.575 4.05,1.575 0.855,0 1.35,-0.3825 0.495,-0.405 0.495,-1.0125 0,-0.9 -2.385,-1.62 -0.18,-0.067 -0.27,-0.09 -3.735,-1.0125 -3.735,-3.375 0,-1.665 1.2825,-2.655 1.305,-1.0125 3.375,-1.0125 2.07,0 3.915,1.215 l -0.945,1.8675 q -1.4625,-0.9675 -3.1725,-0.9675 -0.9,0 -1.4625,0.3375 -0.5625,0.315 -0.5625,0.9675 0,0.585 0.585,0.855 0.405,0.2025 1.125,0.3825 0.7425,0.18 1.305,0.36 0.5625,0.18 1.08,0.405 0.54,0.225 1.1475,0.63 1.215,0.81 1.215,2.52 z" />
    </g>
    <g
       id="text3388"
       style="font-style:normal;font-weight:normal;font-size:40px;line-height:125%;font-family:sans-serif;letter-spacing:0px;word-spacing:0px;fill:#800000;fill-opacity:1;stroke:none;stroke-width:1px;stroke-linecap:butt;stroke-linejoin:miter;stroke-opacity:1">
      <path
         id="path4243"
         style="font-style:normal;font-variant:normal;font-weight:300;font-stretch:normal;font-size:10px;font-family:Montserrat;-inkscape-font-specification:'Montserrat Light';fill:#ffffff"
         d="m 43.07714,1032.9065 c -0.89,0 -1.64,0.39 -1.64,1.24 0,1.74 3.17,1.05 3.11,2.64 -0.03,0.75 -0.73,1.09 -1.54,1.09 -0.68,0 -1.28,-0.24 -1.72,-0.67 l -0.13,0.15 c 0.46,0.46 1.13,0.72 1.85,0.72 0.9,0 1.74,-0.41 1.74,-1.34 0,-1.8 -3.11,-1.06 -3.11,-2.61 0,-0.7 0.64,-1.02 1.45,-1.02 0.51,0 0.94,0.13 1.27,0.34 l 0.1,-0.17 c -0.38,-0.22 -0.83,-0.37 -1.38,-0.37 z" />
      <path
         id="path4245"
         style="font-style:normal;font-variant:normal;font-weight:300;font-stretch:normal;font-size:10px;font-family:Montserrat;-inkscape-font-specification:'Montserrat Light';fill:#ffffff"
         d="m 48.184015,1032.9065 c -1.44,0 -2.51,1.08 -2.51,2.58 0,1.51 1.07,2.59 2.51,2.59 1.44,0 2.51,-1.08 2.51,-2.59 0,-1.5 -1.07,-2.58 -2.51,-2.58 z m 0,0.2 c 1.34,0 2.31,0.98 2.31,2.38 0,1.41 -0.97,2.39 -2.31,2.39 -1.34,0 -2.31,-0.98 -2.31,-2.39 0,-1.4 0.97,-2.38 2.31,-2.38 z" />
      <path
         id="path4247"
         style="font-style:normal;font-variant:normal;font-weight:300;font-stretch:normal;font-size:10px;font-family:Montserrat;-inkscape-font-specification:'Montserrat Light';fill:#ffffff"
         d="m 53.858233,1030.8565 c 0.32,0.01 0.64,0.13 0.9,0.33 l 0.12,-0.16 c -0.28,-0.22 -0.66,-0.36 -1.02,-0.37 -0.81,-0.01 -1.46,0.7 -1.46,1.62 l 0,0.73 -0.65,0 0,0.2 0.65,0 0,4.87 0.2,0 0,-4.87 1.68,0 0,-0.2 -1.68,0 0,-0.73 c 0,-0.82 0.55,-1.43 1.26,-1.42 z" />
      <path
         id="path4249"
         style="font-style:normal;font-variant:normal;font-weight:300;font-stretch:normal;font-size:10px;font-family:Montserrat;-inkscape-font-specification:'Montserrat Light';fill:#ffffff"
         d="m 57.456983,1037.5465 c -0.26,0.21 -0.58,0.32 -0.9,0.33 -0.59,0.01 -0.9,-0.42 -0.9,-1.22 l 0,-3.45 1.82,0 0,-0.2 -1.82,0 0,-1.23 -0.2,0 0,1.23 -0.76,0 0,0.2 0.76,0 0,3.45 c 0,0.94 0.38,1.43 1.1,1.42 0.37,-0.01 0.72,-0.14 1.02,-0.37 l -0.12,-0.16 z" />
      <path
         id="path4251"
         style="font-style:normal;font-variant:normal;font-weight:300;font-stretch:normal;font-size:10px;font-family:Montserrat;-inkscape-font-specification:'Montserrat Light';fill:#ffffff"
         d="m 64.039796,1038.0765 1.97,-5.17 -0.23,0 -1.84,4.94 -1.85,-4.94 -0.24,0 -1.83,4.94 -1.85,-4.94 -0.24,0 1.97,5.17 0.22,0 1.86,-4.89 1.84,4.89 0.22,0 z" />
      <path
         id="path4253"
         style="font-style:normal;font-variant:normal;font-weight:300;font-stretch:normal;font-size:10px;font-family:Montserrat;-inkscape-font-specification:'Montserrat Light';fill:#ffffff"
         d="m 70.405733,1038.0765 0.2,0 -0.02,-3.45 c -0.01,-1.05 -0.65,-1.72 -1.84,-1.72 -0.73,0 -1.35,0.3 -1.93,0.76 l 0.12,0.16 c 0.56,-0.44 1.12,-0.72 1.81,-0.72 1.09,0 1.63,0.57 1.64,1.52 l 0,0.63 -1.92,0 c -1.18,0 -1.92,0.49 -1.92,1.33 0,0.86 0.68,1.49 1.68,1.49 0.93,0 1.71,-0.36 2.17,-1.17 l 0.01,1.17 z m -2.17,-0.2 c -0.91,0 -1.49,-0.53 -1.49,-1.29 0,-0.72 0.62,-1.13 1.72,-1.13 l 1.92,0 0.01,1 c -0.41,1.02 -1.16,1.42 -2.16,1.42 z" />
      <path
         id="path4255"
         style="font-style:normal;font-variant:normal;font-weight:300;font-stretch:normal;font-size:10px;font-family:Montserrat;-inkscape-font-specification:'Montserrat Light';fill:#ffffff"
         d="m 72.821202,1032.9065 -0.2,0 0,5.17 0.2,0 0,-2.83 c 0.09,-1.32 0.81,-2.11 1.98,-2.14 l 0,-0.2 c -0.98,0.02 -1.67,0.53 -1.98,1.41 l 0,-1.41 z" />
      <path
         id="path4257"
         style="font-style:normal;font-variant:normal;font-weight:300;font-stretch:normal;font-size:10px;font-family:Montserrat;-inkscape-font-specification:'Montserrat Light';fill:#ffffff"
         d="m 77.910108,1037.8765 c -1.33,0 -2.29,-0.98 -2.29,-2.39 l 4.69,0 c 0,-1.5 -0.96,-2.58 -2.4,-2.58 -1.43,0 -2.49,1.08 -2.49,2.58 0,1.51 1.06,2.59 2.49,2.59 0.8,0 1.5,-0.3 1.97,-0.81 l -0.14,-0.14 c -0.43,0.48 -1.08,0.75 -1.83,0.75 z m 0,-4.77 c 1.28,0 2.11,0.89 2.2,2.18 l -4.48,0 c 0.09,-1.29 1.02,-2.18 2.28,-2.18 z" />
      <path
         id="path4259"
         style="font-style:normal;font-variant:normal;font-weight:300;font-stretch:normal;font-size:10px;font-family:Montserrat;-inkscape-font-specification:'Montserrat Light';fill:#ffffff"
         d="m 89.386358,1030.6565 -0.2,0 0,3.77 c -0.38,-0.93 -1.24,-1.54 -2.33,-1.54 -1.46,0 -2.53,1.1 -2.53,2.61 0,1.5 1.07,2.6 2.53,2.6 1.09,0 1.95,-0.61 2.33,-1.54 l 0,1.52 0.2,0 0,-7.42 z m -2.53,7.24 c -1.35,0 -2.33,-1.01 -2.33,-2.4 0,-1.39 0.98,-2.41 2.33,-2.41 1.35,0 2.33,1.02 2.33,2.41 0,1.39 -0.98,2.4 -2.33,2.4 z" />
      <path
         id="path4261"
         style="font-style:normal;font-variant:normal;font-weight:300;font-stretch:normal;font-size:10px;font-family:Montserrat;-inkscape-font-specification:'Montserrat Light';fill:#ffffff"
         d="m 93.55464,1037.8765 c -1.33,0 -2.29,-0.98 -2.29,-2.39 l 4.69,0 c 0,-1.5 -0.96,-2.58 -2.4,-2.58 -1.43,0 -2.49,1.08 -2.49,2.58 0,1.51 1.06,2.59 2.49,2.59 0.8,0 1.5,-0.3 1.97,-0.81 l -0.14,-0.14 c -0.43,0.48 -1.08,0.75 -1.83,0.75 z m 0,-4.77 c 1.28,0 2.11,0.89 2.2,2.18 l -4.48,0 c 0.09,-1.29 1.02,-2.18 2.28,-2.18 z" />
      <path
         id="path4263"
         style="font-style:normal;font-variant:normal;font-weight:300;font-stretch:normal;font-size:10px;font-family:Montserrat;-inkscape-font-specification:'Montserrat Light';fill:#ffffff"
         d="m 98.746358,1038.0765 2.120002,-5.17 -0.24,0 -1.990002,4.94 -2,-4.94 -0.23,0 2.12,5.17 0.22,0 z" />
      <path
         id="path4265"
         style="font-style:normal;font-variant:normal;font-weight:300;font-stretch:normal;font-size:10px;font-family:Montserrat;-inkscape-font-specification:'Montserrat Light';fill:#ffffff"
         d="m 103.73042,1037.8765 c -1.33,0 -2.29,-0.98 -2.29,-2.39 l 4.69,0 c 0,-1.5 -0.96,-2.58 -2.4,-2.58 -1.43,0 -2.49,1.08 -2.49,2.58 0,1.51 1.06,2.59 2.49,2.59 0.8,0 1.5,-0.3 1.97,-0.81 l -0.14,-0.14 c -0.43,0.48 -1.08,0.75 -1.83,0.75 z m 0,-4.77 c 1.28,0 2.11,0.89 2.2,2.18 l -4.48,0 c 0.09,-1.29 1.02,-2.18 2.28,-2.18 z" />
      <path
         id="path4267"
         style="font-style:normal;font-variant:normal;font-weight:300;font-stretch:normal;font-size:10px;font-family:Montserrat;-inkscape-font-specification:'Montserrat Light';fill:#ffffff"
         d="m 107.96886,1038.0765 0,-7.42 -0.2,0 0,7.42 0.2,0 z" />
      <path
         id="path4269"
         style="font-style:normal;font-variant:normal;font-weight:300;font-stretch:normal;font-size:10px;font-family:Montserrat;-inkscape-font-specification:'Montserrat Light';fill:#ffffff"
         d="m 112.14886,1032.9065 c -1.44,0 -2.51,1.08 -2.51,2.58 0,1.51 1.07,2.59 2.51,2.59 1.44,0 2.51,-1.08 2.51,-2.59 0,-1.5 -1.07,-2.58 -2.51,-2.58 z m 0,0.2 c 1.34,0 2.31,0.98 2.31,2.38 0,1.41 -0.97,2.39 -2.31,2.39 -1.34,0 -2.31,-0.98 -2.31,-2.39 0,-1.4 0.97,-2.38 2.31,-2.38 z" />
      <path
         id="path4271"
         style="font-style:normal;font-variant:normal;font-weight:300;font-stretch:normal;font-size:10px;font-family:Montserrat;-inkscape-font-specification:'Montserrat Light';fill:#ffffff"
         d="m 118.85308,1032.9065 c -1.08,0 -1.94,0.6 -2.31,1.52 l 0,-1.52 -0.2,0 0,7.11 0.2,0 0,-3.46 c 0.37,0.92 1.23,1.52 2.31,1.52 1.45,0 2.51,-1.09 2.51,-2.58 0,-1.5 -1.06,-2.59 -2.51,-2.59 z m 0,4.97 c -1.34,0 -2.31,-1 -2.31,-2.38 0,-1.38 0.97,-2.39 2.31,-2.39 1.34,0 2.31,1.01 2.31,2.39 0,1.38 -0.97,2.38 -2.31,2.38 z" />
      <path
         id="path4273"
         style="font-style:normal;font-variant:normal;font-weight:300;font-stretch:normal;font-size:10px;font-family:Montserrat;-inkscape-font-specification:'Montserrat Light';fill:#ffffff"
         d="m 124.9023,1037.8765 c -1.33,0 -2.29,-0.98 -2.29,-2.39 l 4.69,0 c 0,-1.5 -0.96,-2.58 -2.4,-2.58 -1.43,0 -2.49,1.08 -2.49,2.58 0,1.51 1.06,2.59 2.49,2.59 0.8,0 1.5,-0.3 1.97,-0.81 l -0.14,-0.14 c -0.43,0.48 -1.08,0.75 -1.83,0.75 z m 0,-4.77 c 1.28,0 2.11,0.89 2.2,2.18 l -4.48,0 c 0.09,-1.29 1.02,-2.18 2.28,-2.18 z" />
      <path
         id="path4275"
         style="font-style:normal;font-variant:normal;font-weight:300;font-stretch:normal;font-size:10px;font-family:Montserrat;-inkscape-font-specification:'Montserrat Light';fill:#ffffff"
         d="m 129.09073,1032.9065 -0.2,0 0,5.17 0.2,0 0,-2.83 c 0.09,-1.32 0.81,-2.11 1.98,-2.14 l 0,-0.2 c -0.98,0.02 -1.67,0.53 -1.98,1.41 l 0,-1.41 z" />
    </g>
  </g>
</svg>
